<svg width="20" height="20" viewBox="0 0 20 20" fill="none" xmlns="http://www.w3.org/2000/svg">
<path d="M10.0002 2.29175H16.6668V3.43758H10.0002V2.29175Z" fill="#222222"/>
<path d="M12.9168 10.8334C12.9168 12.4442 11.611 13.7501 10.0002 13.7501C8.38933 13.7501 7.0835 12.4442 7.0835 10.8334C7.0835 9.22258 8.38933 7.91675 10.0002 7.91675C11.611 7.91675 12.9168 9.22258 12.9168 10.8334ZM11.771 10.8334C11.771 9.85541 10.9782 9.06258 10.0002 9.06258C9.02216 9.06258 8.22933 9.85541 8.22933 10.8334C8.22933 11.8114 9.02216 12.6042 10.0002 12.6042C10.9782 12.6042 11.771 11.8114 11.771 10.8334Z" fill="#222222"/>
<path d="M2.7085 4.58342C2.36332 4.58342 2.0835 4.86324 2.0835 5.20842V16.4584C2.0835 16.8036 2.36332 17.0834 2.7085 17.0834H17.2918C17.637 17.0834 17.9168 16.8036 17.9168 16.4584V5.20842C17.9168 4.86324 17.637 4.58342 17.2918 4.58342H2.7085ZM3.22933 5.72925H16.771V15.9376H3.22933V5.72925Z" fill="#222222"/>
</svg>
