<svg width="20" height="20" viewBox="0 0 20 20" fill="none" xmlns="http://www.w3.org/2000/svg">
<path d="M16.6668 2.29167H10.0002V3.43751H16.6668V2.29167Z" fill="#222222"/>
<path d="M10.0002 12.6042C10.9782 12.6042 11.771 11.8113 11.771 10.8333C11.771 9.85533 10.9782 9.06251 10.0002 9.06251C9.02216 9.06251 8.22933 9.85533 8.22933 10.8333C8.22933 11.8113 9.02216 12.6042 10.0002 12.6042Z" fill="#222222"/>
<path d="M2.0835 5.20834C2.0835 4.86316 2.36332 4.58334 2.7085 4.58334H17.2918C17.637 4.58334 17.9168 4.86316 17.9168 5.20834V16.4583C17.9168 16.8035 17.637 17.0833 17.2918 17.0833H2.7085C2.36332 17.0833 2.0835 16.8035 2.0835 16.4583V5.20834ZM10.0002 13.75C11.611 13.75 12.9168 12.4442 12.9168 10.8333C12.9168 9.22251 11.611 7.91667 10.0002 7.91667C8.38933 7.91667 7.0835 9.22251 7.0835 10.8333C7.0835 12.4442 8.38933 13.75 10.0002 13.75Z" fill="#222222"/>
</svg>
